<svg width="50" height="50" viewBox="0 0 128 100" fill="none" xmlns="http://www.w3.org/2000/svg">
<g clip-path="url(#clip0_2_203)">
<path d="M0.00488281 100H127.996V0H0.00488281V100Z" fill="black"/>
<path d="M1.48633 98.2066H126.631V1.82031H1.48633V98.2066Z" fill="white"/>
<path d="M29.0908 55.2112L31.5118 58.6268L34.0135 55.2339H36.0179V56.2823L32.8828 60.5482L36.0179 65.1093V55.2339H41.6765C42.7467 55.2339 44.3159 55.8427 44.3159 58.5732C44.3159 62.4036 42.2511 62.449 41.1204 62.449H38.1819V66.1577H33.9934L31.4345 62.5233L28.8136 66.1308H20.4853V55.2091H29.0908V55.2112V55.2112ZM54.7276 55.2112H61.8647V57.566H56.9117V59.6113H61.7269V61.6833H56.9117V63.8462H61.8647V66.1329H54.7276V55.2112V55.2112ZM47.5334 66.1597H45.3492V55.236H51.0263C52.0999 55.236 53.6473 55.8221 53.6473 58.1604C53.6473 59.4812 53.3297 60.4533 52.1385 61.1859C53.1701 61.3325 53.5683 62.1621 53.5683 63.9164L53.6473 66.1597H51.5219L51.4631 64.1578C51.4446 63.2333 51.1456 62.3066 50.3929 62.3066H47.5334V66.1597V66.1597ZM75.571 59.4689C78.2575 59.634 78.4793 61.283 78.4793 63.0372C78.4793 65.0845 77.11 66.1824 75.6802 66.1824H71.0952V63.8441H74.6688C75.2753 63.8441 76.1775 63.8441 76.1775 62.7916C76.1775 62.2922 76.0179 61.9764 75.3728 61.8897C74.8715 61.8299 74.3689 61.7872 73.8657 61.7618C71.4413 61.6833 70.8785 60.2036 70.8785 58.3998C70.8785 56.3525 72.0495 55.2318 73.4793 55.2318H78.0643V57.5743H74.7091C73.9463 57.5867 73.1214 57.4628 73.1214 58.5257C73.1214 59.1944 73.5297 59.3285 74.0438 59.3925C74.2219 59.3946 75.4131 59.4689 75.571 59.4689V59.4689ZM67.3922 59.4689C70.0771 59.634 70.3005 61.283 70.3005 63.0372C70.3005 65.0845 68.9295 66.1824 67.5014 66.1824H62.9147V63.8441H66.4883C67.0932 63.8441 67.9988 63.8441 67.9988 62.7916C67.9988 62.2922 67.8391 61.9764 67.194 61.8897C66.905 61.8402 65.8432 61.7659 65.6869 61.7618C63.2625 61.6833 62.6997 60.2036 62.6997 58.3998C62.6997 56.3525 63.8707 55.2318 65.2988 55.2318H69.8855V57.5743H66.5303C65.7659 57.5867 64.9426 57.4628 64.9426 58.5257C64.9426 59.1944 65.3492 59.3285 65.8667 59.3925C66.0431 59.3946 67.2343 59.4689 67.3922 59.4689V59.4689ZM38.6187 47.3832H36.4346V36.4594H42.1116C43.1836 36.4594 44.7343 37.0455 44.7343 39.3838C44.7343 40.7026 44.4168 41.6788 43.2256 42.4094C44.2571 42.5559 44.6553 43.3856 44.6553 45.1398L44.7343 47.3832H42.6106L42.5501 45.3833C42.53 44.4567 42.2343 43.5321 41.4782 43.5321H38.6204V47.3832H38.6187V47.3832ZM45.8465 47.3832H48.029V36.447H45.8465V47.3832ZM28.0474 36.4594H35.1829V38.8122H30.235V40.8615H35.0468V42.9357H30.235V45.0923H35.1829V47.3832H28.0474V36.4594V36.4594ZM12.1116 47.3832H16.5085V39.2765L19.4251 47.3832H21.411L24.3966 39.4107V47.3832H26.579V36.4594H23.0962L20.4164 43.788L17.7467 36.4594H14.3226V46.9807L10.5105 36.4594H7.62404L3.73291 47.3832H6.03634L6.88815 44.9458H11.2447L12.1116 47.3832V47.3832ZM60.5928 44.952H56.238L55.3845 47.3894H52.5048C50.0838 47.3894 49.0102 44.8963 49.0623 41.8728C49.1362 37.3861 51.2951 36.4532 52.2881 36.4532H55.1375V38.8307H53.7884C52.3385 38.8307 51.2078 39.0165 51.2078 41.5756V42.3681C51.2178 44.2936 52.0394 44.7497 52.5653 44.8839C52.6946 44.921 52.9332 44.9355 53.0206 44.9272L53.9648 44.921L56.9722 36.4594H59.862L63.5834 46.7124V36.4532H66.8076L70.4904 44.0171V36.4532H72.6728V47.3894H69.6957L65.7659 39.39V47.3894H61.4581L60.5928 44.952V44.952Z" fill="#00ACEC"/>
<path d="M78.0826 53.5312V4.90771H3.9209V42.5063L6.70148 34.8041H11.4259L12.975 39.3858V34.8041H18.7294L20.4767 39.3404L22.1837 34.8041H42.471C43.264 34.8041 44.3359 35.1467 44.8148 36.2178V34.8041H49.0621V36.4614C49.6182 35.5368 50.4515 34.8041 52.0779 34.8041H60.7338L62.3215 39.2392V34.8041H67.4441L69.2687 38.6573V34.8041H73.9529V49.0403H68.9126L66.8074 44.8487V49.0403H60.4162L59.3847 46.2603H57.3585L56.4058 49.0403H52.3954C51.5218 48.9454 49.4989 48.5037 49.0621 46.8485V49.0403H41.3605V45.9219C41.3605 45.4802 41.0429 44.9457 40.6061 44.9457H39.7727V49.0403H23.3749V45.8228L22.145 49.0403H18.81L17.5399 45.7733V49.0403H10.9891L10.1155 46.5059H8.01028L7.09798 49.0403H3.9209V95.0282H78.0826V66.8427C77.6861 67.3814 77.051 67.8189 76.0984 67.8189H69.9021V66.7457C69.4267 67.3814 68.7529 67.8189 67.6794 67.8189H50.2129V64.845C50.1726 64.4529 50.3322 63.6253 49.4586 63.6253H48.7445V67.8189H44.099V62.9875C43.6219 63.9679 42.592 64.0133 41.9166 64.0628H39.4535V67.8189H33.2606L31.473 65.136L29.5678 67.8189H19.0486V53.5312H29.7274L31.5923 56.115L33.4992 53.5312H41.9552C42.55 53.5766 43.6807 53.9191 44.099 54.6993V53.5312H51.3252C51.9603 53.5312 53.1901 53.8696 53.7076 54.8933V53.5312H62.7583V54.7963C63.2338 54.0182 63.9898 53.5312 65.139 53.5312H70.9354V54.7509C71.3722 53.9687 72.5248 53.5312 73.2002 53.5312H78.0826V53.5312ZM98.4926 52.2887C98.4926 54.1152 92.8323 52.1009 92.8323 56.5423C92.8323 58.571 94.168 59.4894 95.67 59.4894C96.8545 59.4894 97.7634 59.1881 98.6606 58.1623L98.9831 59.2066H101.838C101.675 58.8269 101.649 58.3316 101.649 57.7744V53.2051C101.649 50.873 101.421 49.1579 97.6575 49.1579C94.5157 49.1579 93.3161 50.3694 93.3161 52.4373H96.3521C96.4277 51.5994 97.0208 51.49 97.461 51.49C97.797 51.49 98.4926 51.5829 98.4926 52.2887V52.2887ZM114.917 57.8899V59.1963H117.753V45.7692H114.6V50.4127C113.929 49.4427 113.232 49.1455 112.231 49.1455C110.332 49.1455 108.861 51.2506 108.861 54.497C108.861 57.2563 110.075 59.4749 112.473 59.4749C113.493 59.4749 114.175 59.0849 114.917 57.8899V57.8899ZM108.042 52.5075V49.2013C107.906 49.1827 107.768 49.1455 107.631 49.1455C106.404 49.1455 105.628 49.872 105.188 51.4034H105.158V49.4262H102.29V59.1943H105.445V55.3473C105.445 53.2402 106.098 52.4931 107.389 52.4931L108.042 52.5075V52.5075ZM89.1999 50.8771C89.0924 49.482 88.3783 48.6791 87.256 48.6791C85.9959 48.6791 85.2365 50.0041 85.2365 52.5942C85.2365 54.4784 85.5708 56.2471 87.3904 56.2471C88.5463 56.2471 89.0923 55.2627 89.2301 53.9749H92.6743C92.3585 57.4421 90.3373 59.5265 87.4559 59.5265C83.8437 59.5265 81.6562 56.8106 81.6562 52.4435C81.6562 48.0992 84.0537 45.3956 87.1065 45.3956C90.4448 45.3956 92.3131 47.4285 92.6021 50.875H89.1999V50.8771V50.8771Z" fill="#00ACEC"/>
<path d="M38.1834 60.2097H40.9035C41.7956 60.2097 42.1132 59.574 42.1132 58.8434C42.1132 58.3068 41.8259 57.5907 40.9119 57.5907H38.1834V60.2097ZM27.6222 57.5659H22.6709V59.6112H27.4828V61.6832H22.6709V63.8461H27.7029L30.1054 60.5502L27.9801 57.5762L27.6222 57.5659ZM47.5332 60.0652H50.2533C51.1454 60.0652 51.463 59.5761 51.463 58.8434C51.463 58.3068 51.1757 57.5907 50.2617 57.5907H47.5332V60.0652V60.0652ZM38.6185 41.2886H41.3386C42.2324 41.2886 42.5483 40.8016 42.5483 40.0689C42.5483 39.5344 42.261 38.8121 41.347 38.8121H38.6185V41.2886V41.2886ZM10.4011 42.595H7.74316L9.04693 38.7749L10.4011 42.595ZM58.3917 38.7811L57.0913 42.5991H59.7593L58.3917 38.7811Z" fill="white"/>
<path d="M123.627 62.189L96.9116 95.0036H100.705L123.627 66.8491V62.189Z" fill="#3B4095"/>
<path d="M123.627 71.3708L104.39 95.0036H108.18L123.627 76.033V71.3708Z" fill="#00ACEC"/>
<path d="M123.627 80.5547L111.861 95.0034H115.658L123.627 85.2127V80.5547Z" fill="#6CB35E"/>
<path d="M80.7959 89.8357C80.797 89.1543 80.9074 88.4798 81.1208 87.8508C81.3342 87.2218 81.6465 86.6507 82.0397 86.17C82.4329 85.6893 82.8993 85.3085 83.4124 85.0493C83.9254 84.7902 84.475 84.6578 85.0298 84.6597C85.5832 84.6591 86.1314 84.7927 86.6428 85.0526C87.1542 85.3125 87.6189 85.6938 88.0103 86.1745C88.4017 86.6553 88.712 87.2261 88.9236 87.8543C89.1352 88.4825 89.2439 89.1558 89.2435 89.8357C89.2459 90.5176 89.1388 91.1933 88.9281 91.8241C88.7175 92.455 88.4076 93.0285 88.0161 93.5119C87.6246 93.9953 87.1593 94.3789 86.6468 94.6409C86.1344 94.9029 85.5848 95.0381 85.0298 95.0386C84.4734 95.0394 83.9225 94.9054 83.4084 94.6442C82.8943 94.383 82.4272 93.9997 82.0339 93.5164C81.6406 93.0331 81.3288 92.4592 81.1164 91.8276C80.9039 91.196 80.795 90.5191 80.7959 89.8357V89.8357Z" fill="#00ACEC"/>
<path d="M88.7348 89.8358C88.735 89.2382 88.6393 88.6464 88.4532 88.0943C88.2671 87.5422 87.9942 87.0405 87.6501 86.6181C87.306 86.1956 86.8975 85.8606 86.448 85.6322C85.9984 85.4039 85.5166 85.2866 85.0301 85.2871C84.5429 85.2855 84.0603 85.4019 83.6097 85.6298C83.1592 85.8576 82.7497 86.1924 82.4047 86.6149C82.0596 87.0374 81.7858 87.5394 81.5989 88.0921C81.412 88.6447 81.3156 89.2373 81.3154 89.8358C81.3154 91.0443 81.7063 92.2034 82.402 93.058C83.0977 93.9126 84.0412 94.3927 85.0251 94.3927C86.009 94.3927 86.9525 93.9126 87.6482 93.058C88.3439 92.2034 88.7348 91.0443 88.7348 89.8358V89.8358Z" fill="white"/>
<path d="M87.13 92.7436H86.4462L85.0937 90.0669H84.0353V92.7436H83.459V86.9402H85.5154C85.9136 86.9402 86.3118 86.9691 86.6663 87.2271C87.0208 87.4726 87.1955 87.9886 87.1955 88.4757C87.1955 89.619 86.5453 90.04 85.7036 90.0669L87.13 92.7436V92.7436Z" fill="#00ACEC"/>
<path d="M84.9208 89.5098C85.5845 89.5098 86.6127 89.646 86.6127 88.4613C86.6127 87.5656 85.9709 87.4583 85.3846 87.4583H84.0371V89.5098H84.9208ZM98.4928 54.881C98.5012 56.7096 98.0442 57.2874 96.937 57.2874C96.3137 57.2874 95.934 56.951 95.934 56.4681C95.9356 55.1968 97.4629 55.4961 98.4928 54.881V54.881ZM114.706 54.4043C114.706 55.5394 114.358 56.6766 113.264 56.6766C112.234 56.6766 112.023 55.4857 112.023 54.458C112.023 53.3806 112.31 52.1465 113.358 52.1465C114.403 52.1465 114.706 53.3208 114.706 54.4043Z" fill="white"/>
</g>
<defs>
<clipPath id="clip0_2_203">
<rect width="128" height="100" fill="white"/>
</clipPath>
</defs>
</svg>
