<svg width="50" height="50" viewBox="0 0 128 100" fill="none" xmlns="http://www.w3.org/2000/svg">
<g clip-path="url(#clip0_2_193)">
<path d="M0.00390625 0H127.996V100H0.00390625V0Z" fill="#FFCB01"/>
<path d="M23.7877 38.0701L19.8242 44.6647H41.4259C42.5182 44.6647 42.5046 45.1684 41.9707 46.059C41.4286 46.9596 40.5215 48.5174 39.9685 49.4347C39.6879 49.8983 39.1812 50.7423 40.8593 50.7423H49.6933L52.3111 46.3859C53.9346 43.6873 52.4528 38.0734 46.6478 38.0734L23.7877 38.0701V38.0701Z" fill="#D80613"/>
<path d="M18.2196 59.5551L26.182 46.3058H36.0621C37.1544 46.3058 37.1408 46.8129 36.6069 47.7001L34.5911 51.0625C34.3105 51.5262 33.8038 52.3701 35.4818 52.3701H48.7152C47.6174 54.218 44.0435 59.5551 37.6366 59.5551H18.2196ZM63.8146 52.3667L59.497 59.5551H48.1078L52.4254 52.3667H63.8146ZM81.2593 50.7389H53.406L61.0224 38.0701H72.4062L68.0423 45.3352H73.1226L77.492 38.0701H88.8758L81.2593 50.7389ZM80.2814 52.3667L75.9638 59.5551H64.58L68.8976 52.3667H80.2814ZM1.9707 55.2021H18.7453L17.8301 56.7265H1.9707V55.2021ZM1.9707 52.3667H20.4506L19.5326 53.8911H1.9707V52.3667ZM1.9707 58.0374H17.0428L16.1303 59.5551H1.9707V58.0374ZM126.032 56.7265H109.317L110.235 55.2021H126.032V56.7265ZM126.032 59.5551H107.62L108.53 58.0374H126.032V59.5551ZM111.937 52.3667H126.032V53.8945H111.022L111.937 52.3667ZM104.642 38.0701L97.0261 50.7389H84.9613L92.5832 38.0701H104.642ZM83.9861 52.3667C83.9861 52.3667 83.1553 53.7611 82.7494 54.4282C81.322 56.7965 82.5832 59.5518 87.2495 59.5518H105.533L109.851 52.3667H83.9861V52.3667Z" fill="#D80613"/>
</g>
<defs>
<clipPath id="clip0_2_193">
<rect width="128" height="100" fill="white"/>
</clipPath>
</defs>
</svg>
