
<svg width="50" height="50" viewBox="0 0 128 100" fill="none" xmlns="http://www.w3.org/2000/svg">
<g clip-path="url(#clip0_2_198)">
<path d="M127.212 86.9964C127.212 81.4387 125.814 77.3691 123.887 77.3691C121.964 77.3691 120.564 81.4387 120.564 86.9964C120.564 92.5451 121.964 96.608 123.887 96.608C125.814 96.608 127.212 92.5384 127.212 86.9964ZM123.014 87.4902V93.7784H122.293V79.9123H124.084C125.134 79.9123 125.615 81.2042 125.615 83.7227C125.615 85.2739 125.243 86.5026 124.764 86.6808V86.7394C125.18 86.9265 125.333 87.9727 125.419 89.8869C125.484 91.1269 125.571 93.2779 125.728 93.7829H124.875C124.677 92.4797 124.697 90.6354 124.544 89.091C124.418 87.9163 124.195 87.4879 123.718 87.4879H123.018V87.4947L123.014 87.4902V87.4902ZM123.907 85.6977C124.607 85.6977 124.807 84.6471 124.807 83.7204C124.807 82.6247 124.607 81.7589 123.907 81.7589H123.014V85.7022H123.907V85.6977ZM119.771 86.9964C119.771 80.1491 121.7 75.5203 123.884 75.5203C126.075 75.5203 128.001 80.1491 128.001 86.9964C128.001 93.8303 126.075 98.4636 123.884 98.4636C121.7 98.4636 119.771 93.8303 119.771 86.9964Z" fill="#FF5A00"/>
<path d="M105.518 96.4637L100.777 81.477L96.0767 96.4637H86.1873L95.8527 65.8591L86.1873 35.2455H96.3855L101.175 50.1171L105.784 35.2455H115.625L106.008 65.7306L115.759 96.4637H105.518ZM67.1973 96.4637V0.0256348H86.1873V21.5214H75.2411V35.2455H86.1873V55.9296H75.2411V74.9138H86.1873V96.4637H67.1973Z" fill="#FF5A00"/>
<path d="M59.1829 0.0256348V39.4932H59.0941C57.3205 33.7484 55.1038 31.7463 52.5334 31.7463C47.2663 31.7463 43.2984 41.8448 41.9056 55.1856C40.3168 40.483 36.2201 31.4712 30.1466 31.4712C25.2131 31.4712 21.3188 37.7098 19.2844 47.8783V35.2432H9.08863V21.5237H20.2164V0.0301502H0V96.4637H9.08863V55.9296H18.1477C17.8686 59.0466 17.7291 62.2498 17.7325 65.4645C17.7325 85.5715 23.1844 99.7013 30.145 99.7013C35.9961 99.7013 39.8553 91.9521 41.8944 77.8448H34.105C33.0522 82.0903 32.2522 83.3439 30.1458 83.3439C27.7043 83.3439 25.5971 77.3375 25.5971 70.2263H41.4576C42.1456 86.2005 46.5615 99.9742 52.6222 99.9742C55.2366 99.9742 57.6301 96.3509 59.0933 90.2296H59.1813V96.4772H67.1947V0.0301502H59.1829V0.0256348V0.0256348ZM25.8499 56.2182C26.3563 50.0901 28.0419 46.0858 30.1458 46.0858C32.4626 46.0858 34.0626 49.9661 34.4826 56.2182H25.8499ZM54.3198 81.7882C51.367 81.7882 49.5319 74.0344 49.5319 65.9357C49.5319 57.2779 51.1286 48.9605 54.3198 48.9605C57.6309 48.9605 58.9501 57.2824 58.9501 65.9357C58.9501 74.1382 57.5533 81.7882 54.3198 81.7882Z" fill="#29007C"/>
</g>
<defs>
<clipPath id="clip0_2_198">
<rect width="128" height="100" fill="white"/>
</clipPath>
</defs>
</svg>
