<svg width="50" height="40" viewBox="0 0 128 100" fill="none" xmlns="http://www.w3.org/2000/svg">
<g clip-path="url(#clip0_2_190)">
<path d="M0 0H128V100H0V0Z" fill="#8A05BE"/>
<path d="M94.4869 57.9138C94.4869 59.4977 92.0679 61.4447 90.1005 61.4447H88.3091C88.3111 51.7512 88.3111 40.8838 88.3091 38.9549C88.3084 38.8977 88.322 38.8411 88.3493 38.7881C88.3767 38.7351 88.4171 38.6869 88.4683 38.6461C88.5195 38.6053 88.5806 38.5729 88.6479 38.5506C88.7152 38.5283 88.7874 38.5166 88.8606 38.5161H93.933C94.2376 38.5161 94.4871 38.7158 94.4871 38.9583V57.9138H94.4869ZM86.2212 64.8463C86.2212 65.8489 85.5932 67.5285 81.3868 67.5285C73.235 67.5285 68.2308 62.5389 68.2308 58.9605C68.2308 58.9605 68.2217 47.3898 68.2217 38.9585C68.2209 38.9013 68.2346 38.8445 68.2619 38.7915C68.2893 38.7384 68.3298 38.6901 68.3812 38.6493C68.4325 38.6085 68.4937 38.5761 68.5612 38.5539C68.6286 38.5316 68.7011 38.52 68.7743 38.5198H73.8527C74.1576 38.5198 74.408 38.7182 74.408 38.9622V57.5535C74.408 60.6252 77.5199 63.1168 81.356 63.1168H86.2239L86.2212 64.8463ZM94.3179 36.8488H88.4748C87.2324 36.8488 86.2206 37.6594 86.2206 38.6539V61.4467H81.3524C78.6665 61.4467 76.4897 59.7032 76.4897 57.5531V38.6539C76.4897 37.6571 75.4792 36.8479 74.2344 36.8479H68.3888C67.1439 36.8479 66.1338 37.6571 66.1319 38.6539C66.1288 46.8947 66.1409 58.9609 66.1409 58.9609C66.1418 65.3033 75.02 69.1977 81.3851 69.1977C85.6546 69.1977 88.3064 67.5268 88.3064 64.8349V63.1164H90.0996C93.2451 63.1164 96.5721 60.4427 96.5721 57.9138V38.6539C96.5751 37.6571 95.565 36.8479 94.3182 36.8479V36.8488H94.3179ZM59.7841 61.0414C59.7848 61.0986 59.7711 61.1552 59.7437 61.2082C59.7163 61.2612 59.6757 61.3094 59.6244 61.3501C59.5731 61.3908 59.512 61.4231 59.4446 61.4453C59.3773 61.4675 59.3049 61.4791 59.2318 61.4793H54.1533C53.8443 61.4793 53.5967 61.2792 53.5981 61.038V42.4465C53.5981 39.3749 50.4854 36.8834 46.6501 36.8834H41.7819V35.1535C41.7819 34.153 42.4098 32.4713 46.6163 32.4713C54.7683 32.4713 59.7739 37.4606 59.7739 41.0392C59.7739 41.0392 59.783 52.6661 59.783 61.0412H59.7841V61.0414ZM34.0676 61.4832C33.7586 61.4761 33.5115 61.2816 33.5151 61.0401V42.0881C33.5151 40.504 35.9343 38.5544 37.901 38.5544H39.6939C39.6912 52.4358 39.6912 59.539 39.6939 61.0393C39.6953 61.1552 39.6379 61.2668 39.5342 61.3498C39.4305 61.4327 39.2889 61.4801 39.1406 61.4817H34.0684L34.0676 61.4832ZM61.8583 41.0395C61.8594 34.6965 52.9809 30.802 46.6166 30.802C42.346 30.802 39.6939 32.4728 39.6939 35.1649V36.8834H37.9018C34.7553 36.8834 31.4282 39.557 31.4282 42.0862V61.3458C31.4282 62.3427 32.4384 63.1518 33.6827 63.1518H39.5247C39.561 63.1518 39.5921 63.1441 39.6284 63.1441C40.8224 63.0992 41.7789 62.3136 41.7789 61.3458V38.5531H46.6479C49.3327 38.5531 51.5107 40.2965 51.5107 42.4467V61.3461C51.5107 62.3429 52.5211 63.152 53.7651 63.152H59.6118C60.8567 63.152 61.8662 62.345 61.8662 61.3461C61.8706 52.9516 61.8591 41.039 61.8591 41.039L61.8583 41.0395Z" fill="white"/>
</g>
<defs>
<clipPath id="clip0_2_190">
<rect width="128" height="100" fill="white"/>
</clipPath>
</defs>
</svg>
